<?xml version="1.0" standalone="no"?>
<!DOCTYPE svg PUBLIC "-//W3C//DTD SVG 20010904//EN"
 "http://www.w3.org/TR/2001/REC-SVG-20010904/DTD/svg10.dtd">
<svg version="1.0" xmlns="http://www.w3.org/2000/svg"
 width="454.000000pt" height="475.000000pt" viewBox="0 0 454.000000 475.000000"
 preserveAspectRatio="xMidYMid meet">

<g transform="translate(0.000000,475.000000) scale(0.100000,-0.100000)"
fill="#000000" stroke="none">
<path d="M1729 4731 c-67 -26 -133 -74 -233 -171 -199 -192 -351 -420 -455
-684 l-39 -98 -27 83 c-16 46 -50 137 -78 202 -77 180 -143 242 -234 218 -22
-6 -51 -23 -65 -38 -39 -42 -125 -184 -185 -308 l-53 -110 5 55 c3 30 7 133 8
228 2 171 2 174 -22 193 -30 25 -85 25 -110 0 -16 -16 -20 -41 -25 -177 -16
-398 -39 -609 -136 -1289 -92 -643 -88 -598 -57 -629 18 -18 37 -26 60 -26 60
0 66 16 102 267 57 395 107 640 189 925 45 158 133 392 188 503 34 67 128 225
135 225 10 0 96 -196 127 -292 70 -212 89 -378 66 -560 -10 -77 -10 -104 0
-127 15 -37 61 -58 98 -45 43 15 61 66 77 225 18 169 41 279 90 425 79 237
207 455 373 639 59 64 182 175 223 199 l32 19 -6 -71 c-11 -119 -53 -306 -122
-547 -83 -290 -184 -698 -229 -925 -112 -558 -123 -1056 -35 -1580 77 -463
241 -767 549 -1024 261 -218 524 -328 945 -397 108 -18 185 -23 462 -26 361
-5 767 9 789 28 23 19 18 68 -8 78 -13 5 -223 11 -468 14 -539 7 -684 22 -968
97 -279 75 -521 207 -716 391 -261 248 -381 508 -446 969 -56 393 -45 821 31
1285 47 284 72 389 280 1157 78 287 115 553 90 631 -27 81 -103 107 -202 68z"/>
<path d="M4095 4293 c-640 -8 -1690 -39 -1765 -53 -45 -8 -45 -8 20 -9 36 -1
169 -5 295 -11 249 -10 838 -25 1406 -36 l356 -7 6 -1091 c4 -600 11 -1266 16
-1481 14 -516 31 -1012 40 -1105 6 -67 7 -57 14 100 34 822 47 1561 47 2723
l0 977 -122 -2 c-68 -2 -208 -4 -313 -5z"/>
<path d="M2408 3674 c-31 -9 -68 -33 -106 -69 -75 -69 -113 -149 -120 -251 -7
-104 17 -171 86 -245 64 -69 131 -112 267 -169 243 -102 343 -176 382 -280 60
-160 28 -311 -79 -366 -123 -64 -330 -18 -428 94 -50 56 -76 104 -104 192 -19
60 -23 65 -52 68 -20 2 -36 -4 -49 -18 -17 -19 -18 -26 -7 -68 24 -90 81 -192
146 -257 108 -108 228 -152 389 -142 156 8 264 84 302 210 22 73 19 211 -5
289 -42 138 -140 230 -350 330 -69 33 -159 76 -200 95 -89 43 -164 113 -179
169 -29 104 -4 202 69 268 46 41 92 56 178 56 76 0 141 -29 212 -96 50 -46 78
-54 104 -28 28 27 19 57 -31 105 -65 62 -102 86 -169 109 -68 24 -186 26 -256
4z"/>
<path d="M3495 3676 c-118 -37 -230 -137 -285 -251 -112 -235 -131 -594 -44
-854 56 -170 175 -325 290 -379 54 -25 69 -27 174 -27 97 0 124 4 174 24 85
34 168 117 192 193 16 53 16 58 0 82 -24 37 -72 36 -87 -1 -61 -156 -129 -199
-302 -192 -77 4 -89 7 -136 39 -61 41 -128 126 -171 215 -48 101 -71 204 -77
350 -9 200 18 357 81 490 45 94 94 147 168 184 123 62 235 36 340 -78 27 -29
56 -51 68 -51 20 0 60 32 60 48 0 30 -97 129 -170 173 -75 46 -193 61 -275 35z"/>
<path d="M1790 2270 c-40 -40 -16 -112 41 -125 61 -15 108 76 64 125 -24 26
-79 26 -105 0z"/>
<path d="M2320 1706 c-21 -50 -75 -215 -85 -263 -3 -18 -13 -33 -20 -33 -24 0
-37 -37 -23 -62 9 -16 13 -70 13 -179 0 -167 6 -189 49 -189 39 0 45 17 39
105 -3 44 -2 116 2 159 l7 77 56 -3 57 -3 21 -153 c12 -84 25 -159 28 -167 3
-9 18 -15 36 -15 38 0 46 19 56 123 7 85 -5 159 -41 232 -16 33 -31 98 -45
195 -28 182 -45 220 -102 220 -24 0 -32 -7 -48 -44z m64 -188 c4 -35 10 -73
13 -85 5 -21 2 -23 -36 -23 -26 0 -41 5 -41 13 0 22 43 157 50 157 4 0 11 -28
14 -62z"/>
<path d="M2690 1734 c-84 -22 -90 -34 -90 -179 0 -177 30 -446 61 -542 11 -34
37 -43 67 -24 18 11 17 28 -6 171 -11 69 -23 154 -26 189 l-6 63 60 -4 c48 -3
66 -10 89 -32 53 -51 131 -248 131 -332 0 -52 47 -83 78 -52 42 42 -40 309
-131 429 l-35 45 30 13 c66 29 89 127 45 192 -47 72 -146 95 -267 63z m170
-84 c11 -6 24 -20 30 -31 25 -46 -32 -82 -162 -104 l-38 -6 0 66 c0 59 2 67
23 75 31 12 124 12 147 0z"/>
<path d="M3038 1743 c-34 -5 -50 -25 -46 -55 3 -22 6 -23 119 -26 l116 -3 5
-317 c3 -221 8 -324 17 -339 13 -25 55 -31 68 -10 4 6 6 160 4 340 l-3 329
116 -3 c122 -3 135 1 136 42 0 40 -24 44 -269 45 -130 1 -248 0 -263 -3z"/>
<path d="M3651 1740 c-18 -4 -37 -14 -42 -22 -5 -7 -9 -155 -9 -329 0 -174 -3
-330 -6 -346 -11 -55 10 -63 159 -63 138 0 179 10 185 43 2 10 -2 25 -10 34
-11 13 -29 15 -118 10 -58 -4 -110 -3 -115 1 -6 4 -9 57 -7 135 l4 127 82 0
c87 0 126 15 126 49 0 33 -21 41 -117 41 l-93 0 0 120 0 120 123 0 c131 0 147
5 147 47 0 16 -8 27 -26 33 -30 12 -234 12 -283 0z"/>
</g>
</svg>
